# xmcd CD database file
#
# Track frame offsets:
#	150
#	22331
#	41167
#	58149
#	77080
#	98056
#	116263
#	128312
#	143861
#	164088
#	186972
#	207979
#	222135
#	233761
#	255323
#	270835
#
# Disc length: 3987 seconds
#
# Revision: 0
# Processed by: cddbd v1.4PL0 Copyright (c) Steve Scherf et al.
# Submitted via: CDex 1.50beta10
#
DISCID=dd0f9110
DTITLE=Tubæk River Feetwarmers - Live på Kirsebærkroen
DYEAR=2001
DGENRE=Jazz
TTITLE0=Lord Lord Lord
TTITLE1=All of me
TTITLE2=TRF Jubilee Rag
TTITLE3=At a Georgia Camp meeting
TTITLE4=Bill Baley
TTITLE5=Blueberry Hill
TTITLE6=Sister Kate
TTITLE7=Tennesee Waltz
TTITLE8=The Rose
TTITLE9=Tishomingo Blues
TTITLE10=White Cliffs of Dover
TTITLE11=Yonder comes the Blues
TTITLE12=Dippermonth Blues
TTITLE13=How can you leave me now
TTITLE14=San Fransisco Bay
TTITLE15=Mama, when the sun comes down
EXTD=YEAR: 2001
EXTT0=
EXTT1=
EXTT2=
EXTT3=
EXTT4=
EXTT5=
EXTT6=
EXTT7=
EXTT8=
EXTT9=
EXTT10=
EXTT11=
EXTT12=
EXTT13=
EXTT14=
EXTT15=
PLAYORDER=
